<svg xmlns="http://www.w3.org/2000/svg" viewBox="0 0 1254 1254" role="img" aria-labelledby="title desc">
  <title id="title">Finding Jesus favicon</title>
  <desc id="desc">A traced SVG favicon of a minimalist cross combined with a magnifying glass and centered heart.</desc>
  <path d="M 559 490 L 546 498 L 536 508 L 526 526 L 523 539 L 523 559 L 528 578 L 539 598 L 560 622 L 624 680 L 628 682 L 635 682 L 641 678 L 692 632 L 714 610 L 727 593 L 733 582 L 739 563 L 740 543 L 739 542 L 738 531 L 735 522 L 728 510 L 718 499 L 708 492 L 692 486 L 687 486 L 686 485 L 675 485 L 674 486 L 673 485 L 672 486 L 662 487 L 646 494 L 632 506 L 615 493 L 604 488 L 596 486 L 580 485 L 579 486 L 572 486 Z M 567 512 L 576 509 L 596 510 L 609 517 L 620 528 L 625 535 L 632 537 L 639 534 L 645 525 L 658 514 L 671 509 L 687 509 L 693 511 L 703 517 L 708 522 L 713 530 L 716 539 L 717 553 L 714 567 L 709 578 L 696 595 L 676 615 L 632 655 L 592 620 L 564 592 L 551 573 L 546 557 L 547 537 L 553 524 L 562 515 Z M 566 154 L 553 159 L 543 168 L 538 177 L 536 185 L 536 404 L 517 416 L 495 435 L 479 453 L 470 466 L 245 466 L 234 470 L 224 480 L 221 486 L 219 495 L 219 637 L 221 646 L 225 653 L 233 661 L 246 666 L 467 666 L 481 687 L 505 712 L 526 728 L 536 734 L 536 1063 L 538 1071 L 541 1077 L 553 1089 L 568 1094 L 694 1094 L 704 1092 L 712 1088 L 722 1078 L 727 1066 L 727 734 L 756 714 L 773 731 L 769 743 L 769 756 L 771 764 L 777 775 L 899 898 L 910 904 L 923 907 L 934 906 L 949 899 L 959 889 L 964 879 L 965 869 L 966 868 L 964 853 L 957 840 L 835 717 L 825 711 L 812 708 L 794 711 L 776 693 L 786 681 L 796 666 L 1014 666 L 1028 660 L 1034 654 L 1037 649 L 1040 638 L 1040 494 L 1037 483 L 1034 478 L 1025 470 L 1014 466 L 792 466 L 780 449 L 758 426 L 740 412 L 731 407 L 727 403 L 728 402 L 727 401 L 727 183 L 725 176 L 717 164 L 709 158 L 698 154 Z M 697 747 L 698 748 L 698 1061 L 694 1065 L 691 1066 L 598 1066 L 597 1065 L 596 1066 L 592 1065 L 591 1066 L 573 1066 L 570 1065 L 566 1062 L 565 1059 L 565 749 L 568 748 L 582 753 L 601 757 L 620 758 L 621 759 L 640 759 L 641 758 L 654 758 L 655 757 L 661 757 L 677 754 L 694 749 Z M 800 738 L 806 735 L 816 736 L 937 858 L 939 862 L 939 869 L 937 874 L 933 878 L 927 880 L 922 880 L 917 878 L 797 757 L 795 753 L 795 746 Z M 807 495 L 808 494 L 1008 494 L 1010 495 L 1012 498 L 1012 634 L 1011 636 L 1008 638 L 811 638 L 810 636 L 816 620 L 821 595 L 822 553 L 821 552 L 820 537 L 815 515 Z M 251 494 L 454 494 L 455 496 L 451 504 L 444 528 L 442 544 L 441 545 L 441 554 L 440 555 L 440 583 L 441 584 L 442 600 L 447 622 L 453 637 L 452 638 L 251 638 L 249 637 L 247 634 L 247 499 Z M 616 408 L 646 408 L 678 414 L 695 420 L 713 429 L 732 442 L 759 469 L 773 490 L 783 511 L 788 526 L 792 545 L 792 553 L 793 554 L 793 586 L 792 587 L 790 604 L 786 619 L 779 637 L 771 652 L 755 674 L 732 696 L 709 711 L 692 719 L 674 725 L 670 725 L 660 728 L 646 729 L 645 730 L 610 729 L 609 728 L 593 726 L 582 722 L 579 722 L 550 709 L 528 694 L 505 671 L 488 646 L 482 634 L 475 615 L 472 603 L 472 598 L 470 591 L 470 582 L 469 581 L 469 555 L 475 524 L 487 494 L 505 467 L 528 444 L 543 433 L 557 425 L 585 414 Z M 569 183 L 571 182 L 693 182 L 698 187 L 698 389 L 697 390 L 673 383 L 668 383 L 655 380 L 642 380 L 641 379 L 608 380 L 607 381 L 590 383 L 568 390 L 565 389 L 565 188 Z" fill="currentColor" fill-rule="evenodd"/>
</svg>
