<?xml version="1.0" encoding="UTF-8"?>
<svg id="Layer_1" xmlns="http://www.w3.org/2000/svg" version="1.1" viewBox="0 0 1254 1254">
  <!-- Generator: Adobe Illustrator 30.3.0, SVG Export Plug-In . SVG Version: 2.1.3 Build 182)  -->
  <defs>
    <style>
      .st0 {
        display: none;
      }

      .st0, .st1 {
        fill: #fff;
        fill-rule: evenodd;
      }

      .st2 {
        fill: #382267;
        stroke: #fff;
        stroke-miterlimit: 10;
        stroke-width: 2px;
      }
    </style>
  </defs>
  <circle class="st2" cx="627" cy="627" r="627"/>
  <path id="circle" class="st0" d="M552.5,497l-13,8-10,10-10,18-3,13v20l5,19,11,20,21,24,64,58,4,2h7l6-4,51-46,22-22,13-17,6-11,6-19,1-20-1-1-1-11-3-9-7-12-10-11-10-7-16-6h-5l-1-1h-11l-1,1-1-1-1,1-10,1-16,7-14,12-17-13-11-5-8-2-16-1-1,1h-7l-13,4ZM560.5,519l9-3,20,1,13,7,11,11,5,7,7,2,7-3,6-9,13-11,13-5h16l6,2,10,6,5,5,5,8,3,9,1,14-3,14-5,11-13,17-20,20-44,40-40-35-28-28-13-19-5-16,1-20,6-13,9-9,5-3ZM559.5,161l-13,5-10,9-5,9-2,8v219l-19,12-22,19-16,18-9,13h-225l-11,4-10,10-3,6-2,9v142l2,9,4,7,8,8,13,5h221l14,21,24,25,21,16,10,6v329l2,8,3,6,12,12,15,5h126l10-2,8-4,10-10,5-12v-332l29-20,17,17-4,12v13l2,8,6,11,122,123,11,6,13,3,11-1,15-7,10-10,5-10,1-10,1-1-2-15-7-13-122-123-10-6-13-3-18,3-18-18,10-12,10-15h218l14-6,6-6,3-5,3-11v-144l-3-11-3-5-9-8-11-4h-222l-12-17-22-23-18-14-9-5-4-4,1-1-1-1v-218l-2-7-8-12-8-6-11-4h-132ZM690.5,754l1,1v313l-4,4-3,1h-93l-1-1-1,1-4-1-1,1h-18l-3-1-4-3-1-3v-310l3-1,14,5,19,4,19,1,1,1h19l1-1h13l1-1h6l16-3,17-5,3-2ZM793.5,745l6-3,10,1,121,122,2,4v7l-2,5-4,4-6,2h-5l-5-2-120-121-2-4v-7l5-8ZM800.5,502l1-1h200l2,1,2,3v136l-1,2-3,2h-197l-1-2,6-16,5-25,1-42-1-1-1-15-5-22-8-20ZM244.5,501h203l1,2-4,8-7,24-2,16-1,1v9l-1,1v28l1,1,1,16,5,22,6,15-1,1h-201l-2-1-2-3v-135l4-5ZM609.5,415h30l32,6,17,6,18,9,19,13,27,27,14,21,10,21,5,15,4,19v8l1,1v32l-1,1-2,17-4,15-7,18-8,15-16,22-23,22-23,15-17,8-18,6h-4l-10,3-14,1-1,1-35-1-1-1-16-2-11-4h-3l-29-13-22-15-23-23-17-25-6-12-7-19-3-12v-5l-2-7v-9l-1-1v-26l6-31,12-30,18-27,23-23,15-11,14-8,28-11,31-6ZM562.5,190l2-1h122l5,5v202l-1,1-24-7h-5l-13-3h-13l-1-1-33,1-1,1-17,2-22,7-3-1v-201l4-5Z"/>
  <path class="st1" d="M559,490l-13,8-10,10-10,18-3,13v20l5,19,11,20,21,24,64,58,4,2h7l6-4,51-46,22-22,13-17,6-11,6-19,1-20-1-1-1-11-3-9-7-12-10-11-10-7-16-6h-5l-1-1h-11l-1,1-1-1-1,1-10,1-16,7-14,12-17-13-11-5-8-2-16-1-1,1h-7l-13,4ZM567,512l9-3,20,1,13,7,11,11,5,7,7,2,7-3,6-9,13-11,13-5h16l6,2,10,6,5,5,5,8,3,9,1,14-3,14-5,11-13,17-20,20-44,40-40-35-28-28-13-19-5-16,1-20,6-13,9-9,5-3ZM566,154l-13,5-10,9-5,9-2,8v219l-19,12-22,19-16,18-9,13h-225l-11,4-10,10-3,6-2,9v142l2,9,4,7,8,8,13,5h221l14,21,24,25,21,16,10,6v329l2,8,3,6,12,12,15,5h126l10-2,8-4,10-10,5-12v-332l29-20,17,17-4,12v13l2,8,6,11,122,123,11,6,13,3,11-1,15-7,10-10,5-10,1-10,1-1-2-15-7-13-122-123-10-6-13-3-18,3-18-18,10-12,10-15h218l14-6,6-6,3-5,3-11v-144l-3-11-3-5-9-8-11-4h-222l-12-17-22-23-18-14-9-5-4-4,1-1-1-1v-218l-2-7-8-12-8-6-11-4h-132ZM697,747l1,1v313l-4,4-3,1h-93l-1-1-1,1-4-1-1,1h-18l-3-1-4-3-1-3v-310l3-1,14,5,19,4,19,1,1,1h19l1-1h13l1-1h6l16-3,17-5,3-2ZM800,738l6-3,10,1,121,122,2,4v7l-2,5-4,4-6,2h-5l-5-2-120-121-2-4v-7l5-8ZM807,495l1-1h200l2,1,2,3v136l-1,2-3,2h-197l-1-2,6-16,5-25,1-42-1-1-1-15-5-22-8-20ZM251,494h203l1,2-4,8-7,24-2,16-1,1v9l-1,1v28l1,1,1,16,5,22,6,15-1,1h-201l-2-1-2-3v-135l4-5ZM616,408h30l32,6,17,6,18,9,19,13,27,27,14,21,10,21,5,15,4,19v8l1,1v32l-1,1-2,17-4,15-7,18-8,15-16,22-23,22-23,15-17,8-18,6h-4l-10,3-14,1-1,1-35-1-1-1-16-2-11-4h-3l-29-13-22-15-23-23-17-25-6-12-7-19-3-12v-5l-2-7v-9l-1-1v-26l6-31,12-30,18-27,23-23,15-11,14-8,28-11,31-6ZM569,183l2-1h122l5,5v202l-1,1-24-7h-5l-13-3h-13l-1-1-33,1-1,1-17,2-22,7-3-1v-201l4-5Z"/>
</svg>